<?xml version="1.0" standalone="no"?>
<!DOCTYPE svg PUBLIC "-//W3C//DTD SVG 20010904//EN"
 "http://www.w3.org/TR/2001/REC-SVG-20010904/DTD/svg10.dtd">
<svg version="1.0" xmlns="http://www.w3.org/2000/svg"
 width="512.000000pt" height="512.000000pt" viewBox="0 0 512.000000 512.000000"
 preserveAspectRatio="xMidYMid meet">

<g transform="translate(0.000000,512.000000) scale(0.100000,-0.100000)"
fill="#000000" stroke="none">
<path d="M668 4761 c-129 -42 -225 -127 -291 -260 l-42 -84 0 -127 0 -126 42
-86 43 -86 713 -678 713 -679 7 -275 c4 -151 7 -509 7 -794 0 -499 1 -521 20
-561 50 -103 193 -112 257 -16 l23 34 0 507 c0 279 -3 670 -7 869 l-6 363
-736 700 c-405 384 -746 716 -758 736 -55 91 -8 234 90 271 20 8 522 11 1637
11 1115 0 1617 -3 1637 -11 98 -37 145 -179 90 -272 -15 -26 -1274 -1216
-1535 -1452 -2 -2 -3 -526 -2 -1166 1 -1299 -4 -1207 70 -1257 48 -32 137 -28
176 9 57 53 54 -14 54 1181 l1 1103 546 510 c988 923 916 853 965 952 l43 86
0 127 0 127 -42 84 c-67 134 -162 219 -292 259 -62 20 -101 20 -1715 19 -1569
0 -1654 -1 -1708 -18z"/>
<path d="M3362 2270 c-94 -57 -96 -195 -3 -252 l36 -23 650 0 c636 0 651 0
685 20 71 42 95 137 52 208 -44 69 -17 67 -739 67 -629 0 -649 -1 -681 -20z"/>
<path d="M3370 1432 c-107 -58 -107 -210 0 -265 33 -16 81 -17 687 -15 640 3
652 3 679 24 47 34 66 68 66 116 1 52 -23 100 -65 132 -28 21 -35 21 -680 24
-620 2 -654 1 -687 -16z"/>
<path d="M3337 561 c-41 -39 -42 -41 -42 -106 0 -65 1 -67 41 -105 34 -31 51
-39 95 -45 30 -3 326 -5 659 -3 584 3 606 4 638 23 98 59 100 201 4 258 -28
16 -80 17 -691 17 l-662 0 -42 -39z"/>
</g>
</svg>
